# xmcd CD database file
#
# Track frame offsets:
#	150
#	13160
#	29858
#	46906
#	70095
#
# Disc length: 1226 seconds
#
# Revision: 0
# Processed by: cddbd v1.5.2PL0 Copyright (c) Steve Scherf et al.
# Submitted via: CDex 1.70beta2
#
DISCID=4004c805
DTITLE=Chet Baker - Trompettiste enc chanteur CD Collection 681
DYEAR=2016
DGENRE=Jazz
TTITLE0=Chet Baker - The Thrill Is Gone
TTITLE1=Chet Baker Quartet - Grey December
TTITLE2=Chet Baker - Let's Get Lost
TTITLE3=Chet Baker Quartet - My Funny Valentine (live)
TTITLE4=Autour de Chet - The Thrill Is Gone (Camelia Jordana and Erik Truffaz)
EXTD=YEAR: 2016
EXTT0=
EXTT1=
EXTT2=
EXTT3=
EXTT4=
PLAYORDER=
